# xmcd
#
# Track frame offsets:
#	150
#	12228
#	24258
#	35034
#	42553
#	54576
#	64657
#	76767
#	90615
#	102563
#	114705
#
# Disc length: 1715 seconds
#
# Revision: 1
# Processed by: cddbd v1.5.2PL0 Copyright (c) Steve Scherf et al.
# Submitted via: audiograbber 1.83.01
#
DISCID=8a06b10b
DTITLE=Ralph White - Remembering Hank
DYEAR=2000
DGENRE=Country
TTITLE0=The Wild side of Life
TTITLE1=Lost Highway
TTITLE2=The Old Country Store
TTITLE3=Don't Walk On My Heart
TTITLE4=Only Dust In My Eye
TTITLE5=Lone Gone Lonesome Blues
TTITLE6=Remembering Hank
TTITLE7=Crazy Arms
TTITLE8=Remember Me
TTITLE9=That Silver Haired Daddy of Mine
TTITLE10=I'm So Lonesome I Could Cry
EXTD=
EXTT0=
EXTT1=
EXTT2=
EXTT3=
EXTT4=
EXTT5=
EXTT6=
EXTT7=
EXTT8=
EXTT9=
EXTT10=
PLAYORDER=
